<svg width="138" height="48" viewBox="0 0 138 48" fill="none" xmlns="http://www.w3.org/2000/svg">
<path fill-rule="evenodd" clip-rule="evenodd" d="M74.0496 39.9723H70.0276L77.6695 24.7985H81.6915L89.3334 39.9723H85.3114L84.1048 37.5765H75.2563L74.0497 39.9723H74.0496ZM49.113 24.7985H64.5979C66.6995 24.7985 68.4188 26.5056 68.4188 28.592C68.4188 30.6784 66.6995 32.3854 64.5979 32.3854C66.6995 32.3854 68.4188 34.0924 68.4188 36.1788C68.4188 38.2653 66.6995 39.9722 64.5979 39.9722H49.113V24.7985V24.7985ZM49.113 8.02763H53.1351V14.4166H64.3968V8.02763H68.4188V23.2013H64.3968V16.8125H53.1351V23.2013H49.113V8.02763V8.02763ZM85.3113 23.2013H89.3334L81.6915 8.02763H77.6695L70.0276 23.2013H74.0496L75.2562 20.8055H84.1047L85.3113 23.2013H85.3113ZM79.6805 12.0208L82.8981 18.4096H76.4629L79.6805 12.0208H79.6805ZM90.9421 8.02765H94.9642V20.8055H106.226V23.2014H90.9421V8.02764L90.9421 8.02765ZM111.857 16.8125V23.2013H107.835V16.8125L100.193 8.02765H104.215L109.846 14.4166L115.476 8.02765H119.498L111.857 16.8125H111.857ZM120.705 8.02765H124.727V14.4166L133.576 8.02765H138L127.623 15.6146L138 23.2014H133.576L124.727 16.8125V23.2014H120.705V8.02765V8.02765ZM118.775 32.3855L129.152 24.7986H124.727L115.879 31.1875V24.7986H111.857V39.9723H115.879V33.5834L124.727 39.9723H129.152L118.775 32.3855ZM90.9421 24.7986H94.9642L106.226 35.9792V24.7986H110.248L110.248 39.9723H106.226H106.226L94.9642 28.7917V39.9723H90.9421V24.7986V24.7986ZM53.1351 27.1944V31.1875H62.3858C63.4918 31.1875 64.3968 30.2891 64.3968 29.191C64.3968 28.0929 63.4918 27.1944 62.3858 27.1944H53.1351V27.1944ZM53.1351 33.5834V37.5765H62.3858C63.4918 37.5765 64.3968 36.678 64.3968 35.5799C64.3968 34.4817 63.4918 33.5834 62.3858 33.5834H53.1351ZM82.8981 35.1806L79.6805 28.7917L76.4628 35.1806H82.8981H82.8981Z" fill="#F9B101"/>
<path fill-rule="evenodd" clip-rule="evenodd" d="M4.26166 23.9999L24.1499 4.23515L29.9751 10.0241H29.9747C31.2701 11.4253 32.0626 13.2925 32.0626 15.3377C32.0626 19.6693 28.5084 23.201 24.1499 23.2013C18.5037 23.2015 13.4426 25.7678 10.0869 29.7883V29.7889L4.2617 23.9998L4.26166 23.9999ZM38.2131 18.2109L44.0383 23.9999L24.1498 43.7648L18.3248 37.9758H18.3255C17.0299 36.5747 16.2373 34.7075 16.2373 32.6622C16.2373 28.3308 19.7914 24.7988 24.1498 24.7986C29.7962 24.7984 34.8576 22.2323 38.2131 18.2116V18.211L38.2131 18.2109ZM8.07792 8.02775H16.0722L24.1498 0L32.2278 8.02775H40.2221V15.9722L48.2999 23.9999L40.2221 32.0276V39.9723H32.2278L24.1498 48L16.0722 39.9723H8.07792V32.0276L0 23.9999L8.07792 15.9722V8.02775V8.02775ZM15.4838 10.0241H10.0868V15.3876L1.42054 23.9999L8.07792 30.616V30.6161L10.0869 32.6125V37.9758H15.4838L17.4926 39.9724H17.4927L24.1499 46.5883L30.8073 39.9724L32.8161 37.9758H38.2131V32.6125L40.2222 30.6161V30.6158L46.8794 23.9999L40.2222 17.384L38.2131 15.3876V10.0241H32.8161L30.8073 8.02774L24.1499 1.4117L15.4838 10.0241L15.4838 10.0241Z" fill="#F9B101"/>
</svg>
